<?xml version="1.0" standalone="no"?>
<!DOCTYPE svg PUBLIC "-//W3C//DTD SVG 20010904//EN"
 "http://www.w3.org/TR/2001/REC-SVG-20010904/DTD/svg10.dtd">
<svg version="1.0" xmlns="http://www.w3.org/2000/svg"
 width="128.000000pt" height="128.000000pt" viewBox="0 0 128.000000 128.000000"
 preserveAspectRatio="xMidYMid meet">
<metadata>
Created by potrace 1.14, written by Peter Selinger 2001-2017
</metadata>
<g transform="translate(0.000000,128.000000) scale(0.100000,-0.100000)"
fill="#000000" stroke="none">
<path d="M75 1240 c-11 -4 -31 -20 -45 -35 l-25 -27 0 -538 c0 -524 1 -538 20
-560 43 -49 57 -50 490 -50 446 0 460 2 489 59 13 24 16 65 16 193 l0 162 -45
-44 -45 -44 0 -112 c0 -93 -3 -113 -16 -118 -9 -3 -195 -6 -414 -6 -354 0
-399 2 -404 16 -3 9 -6 240 -6 515 l0 499 23 5 c12 3 200 4 417 3 l395 -3 3
-149 3 -150 44 44 45 44 0 117 c0 117 0 118 -29 147 -17 16 -44 32 -62 36 -47
9 -831 6 -854 -4z"/>
<path d="M1123 940 c-59 -36 -58 -40 21 -119 l73 -72 31 36 c18 19 32 45 32
56 0 26 -74 106 -105 111 -13 3 -37 -3 -52 -12z"/>
<path d="M300 890 l0 -30 210 0 210 0 0 30 0 30 -210 0 -210 0 0 -30z"/>
<path d="M842 667 l-182 -182 0 -73 0 -72 73 0 73 0 180 181 c98 99 180 181
181 183 1 1 -30 34 -70 74 l-72 72 -183 -183z"/>
<path d="M307 663 c-4 -3 -7 -19 -7 -35 l0 -28 210 0 210 0 0 35 0 35 -203 0
c-112 0 -207 -3 -210 -7z"/>
<path d="M302 378 l3 -33 128 -3 127 -3 0 36 0 35 -131 0 -130 0 3 -32z"/>
</g>
</svg>
